<svg width="500" height="500" viewBox="0 0 500 500" fill="none" xmlns="http://www.w3.org/2000/svg">
  <defs>
    <linearGradient id="gradient1" x1="0%" y1="0%" x2="100%" y2="100%">
      <stop offset="0%" style="stop-color:#29abe2;stop-opacity:1" />
      <stop offset="100%" style="stop-color:#0053b6;stop-opacity:1" />
    </linearGradient>
  </defs>
  
  <!-- Crown -->
  <path d="M185 125 L200 140 L215 125 L225 140 L235 125" stroke="#29abe2" stroke-width="6" fill="none" stroke-linecap="round" stroke-linejoin="round"/>
  <path d="M190 140 L230 140 L225 155 L195 155 Z" fill="#29abe2"/>
  
  <!-- Tooth Shape -->
  <path d="M 180 160 Q 150 180 150 220 L 150 300 Q 150 330 180 340 L 220 350 Q 270 360 290 340 Q 320 320 320 280 L 320 240 Q 320 190 290 170 Q 270 155 240 155 Q 210 155 180 160 Z" 
    stroke="url(#gradient1)" stroke-width="8" fill="none"/>
  
  <!-- Inner detail -->
  <path d="M 240 230 Q 260 240 270 260 L 280 290 Q 285 310 270 320" 
    stroke="#29abe2" stroke-width="5" fill="none" stroke-linecap="round"/>
  
  <!-- Text -->
  <text x="250" y="400" font-family="Arial, sans-serif" font-size="42" font-weight="bold" fill="url(#gradient1)" text-anchor="middle">FUTURE SMILE CLINIC</text>
  <text x="250" y="430" font-family="Arial, sans-serif" font-size="18" fill="#29abe2" text-anchor="middle" letter-spacing="3">YOUR SMILE OUR CARE</text>
</svg>
