<svg xmlns="http://www.w3.org/2000/svg" viewBox="0 0 100 100">
  <defs>
    <linearGradient id="grad" x1="0%" y1="0%" x2="100%" y2="100%">
      <stop offset="0%" style="stop-color:#29abe2;stop-opacity:1" />
      <stop offset="100%" style="stop-color:#0053b6;stop-opacity:1" />
    </linearGradient>
  </defs>
  
  <!-- Tooth shape -->
  <path d="M50 20 C35 20 25 30 25 45 C25 55 28 65 30 75 C32 85 35 95 45 95 C50 95 50 95 50 95 C50 95 50 95 55 95 C65 95 68 85 70 75 C72 65 75 55 75 45 C75 30 65 20 50 20 Z" 
        fill="url(#grad)" stroke="white" stroke-width="2"/>
  
  <!-- Smile -->
  <path d="M 35 50 Q 50 60 65 50" 
        stroke="white" stroke-width="3" fill="none" stroke-linecap="round"/>
  
  <!-- Eyes/Sparkles -->
  <circle cx="38" cy="40" r="2" fill="white"/>
  <circle cx="62" cy="40" r="2" fill="white"/>
</svg>
